<svg width="21" height="15" viewBox="0 0 21 15" fill="none" xmlns="http://www.w3.org/2000/svg">
<path d="M20.2597 2.20301C20.1457 1.78041 19.9232 1.39501 19.614 1.08518C19.3049 0.775338 18.92 0.551868 18.4977 0.437007C16.9317 0.00700739 10.6667 7.59651e-06 10.6667 7.59651e-06C10.6667 7.59651e-06 4.40265 -0.00699261 2.83565 0.404007C2.41358 0.524154 2.02947 0.750785 1.72022 1.06214C1.41096 1.3735 1.18694 1.75913 1.06965 2.18201C0.656651 3.74801 0.65265 6.99601 0.65265 6.99601C0.65265 6.99601 0.64865 10.26 1.05865 11.81C1.28865 12.667 1.96365 13.344 2.82165 13.575C4.40365 14.005 10.6517 14.012 10.6517 14.012C10.6517 14.012 16.9167 14.019 18.4827 13.609C18.9051 13.4943 19.2904 13.2714 19.6003 12.9622C19.9102 12.653 20.134 12.2682 20.2497 11.846C20.6637 10.281 20.6667 7.03401 20.6667 7.03401C20.6667 7.03401 20.6867 3.76901 20.2597 2.20301ZM8.66265 10.005L8.66765 4.00501L13.8747 7.01001L8.66265 10.005Z" fill="black"/>
</svg>
